<svg width="272" height="69" viewBox="0 0 272 69" fill="none" xmlns="http://www.w3.org/2000/svg">
<g clip-path="url(#clip0)">
<path d="M81.2 20L69.2 48H61.4L49.44 20H58L65.6 38.24L73.36 20H81.2ZM105.469 41.88V48H82.9891V20H104.949V26.12H90.8291V30.84H103.269V36.76H90.8291V41.88H105.469ZM110.014 20H117.934V41.72H131.294V48H110.014V20ZM148.268 48.56C145.308 48.56 142.642 47.9333 140.268 46.68C137.922 45.4267 136.068 43.6933 134.708 41.48C133.375 39.2667 132.708 36.7733 132.708 34C132.708 31.2267 133.375 28.7333 134.708 26.52C136.068 24.3067 137.922 22.5733 140.268 21.32C142.642 20.0667 145.308 19.44 148.268 19.44C151.228 19.44 153.882 20.0667 156.228 21.32C158.602 22.5733 160.455 24.3067 161.788 26.52C163.148 28.7333 163.828 31.2267 163.828 34C163.828 36.7733 163.148 39.2667 161.788 41.48C160.455 43.6933 158.602 45.4267 156.228 46.68C153.882 47.9333 151.228 48.56 148.268 48.56ZM148.268 42C149.682 42 150.962 41.6667 152.108 41C153.255 40.3333 154.162 39.4 154.828 38.2C155.495 36.9733 155.828 35.5733 155.828 34C155.828 32.4267 155.495 31.04 154.828 29.84C154.162 28.6133 153.255 27.6667 152.108 27C150.962 26.3333 149.682 26 148.268 26C146.855 26 145.575 26.3333 144.428 27C143.282 27.6667 142.375 28.6133 141.708 29.84C141.042 31.04 140.708 32.4267 140.708 34C140.708 35.5733 141.042 36.9733 141.708 38.2C142.375 39.4 143.282 40.3333 144.428 41C145.575 41.6667 146.855 42 148.268 42ZM182.087 48.56C179.153 48.56 176.513 47.9467 174.167 46.72C171.847 45.4667 170.02 43.7333 168.687 41.52C167.353 39.3067 166.687 36.8 166.687 34C166.687 31.2 167.353 28.6933 168.687 26.48C170.02 24.2667 171.847 22.5467 174.167 21.32C176.513 20.0667 179.153 19.44 182.087 19.44C184.647 19.44 186.953 19.8933 189.007 20.8C191.06 21.7067 192.767 23.0133 194.127 24.72L189.087 29.28C187.273 27.0933 185.073 26 182.487 26C180.967 26 179.607 26.3333 178.407 27C177.233 27.6667 176.313 28.6133 175.647 29.84C175.007 31.04 174.687 32.4267 174.687 34C174.687 35.5733 175.007 36.9733 175.647 38.2C176.313 39.4 177.233 40.3333 178.407 41C179.607 41.6667 180.967 42 182.487 42C185.073 42 187.273 40.9067 189.087 38.72L194.127 43.28C192.767 44.9867 191.06 46.2933 189.007 47.2C186.953 48.1067 184.647 48.56 182.087 48.56ZM197.808 20H205.728V48H197.808V20ZM217.472 26.28H208.872V20H233.952V26.28H225.392V48H217.472V26.28ZM251.389 37.96V48H243.469V37.84L232.789 20H241.149L247.789 31.12L254.429 20H262.109L251.389 37.96Z" fill="#0E0E0E"/>
<path d="M36.8473 18.3366L29.5679 17.8904L28.019 17.7954L44.1211 51.8444L52.9494 52.3855L36.8473 18.3366Z" fill="white"/>
<path d="M20.8473 17.5412L13.5679 17.0949L12.019 17L28.1211 51.049L36.9494 51.5901L20.8473 17.5412Z" fill="#0E0E0E"/>
</g>
<defs>
<clipPath id="clip0">
<rect width="250" height="31" fill="white" transform="translate(13 19)"/>
</clipPath>
</defs>
</svg>
